<svg xmlns="http://www.w3.org/2000/svg" viewBox="0 0 833 322"><defs><style>.a{fill:#231f20;}</style></defs><title>solvee-logo</title><path class="a" d="M165.5,116.13a21.9,21.9,0,0,0-2.61-11,8.63,8.63,0,0,0-8-4.56q-6,0-8.83,3.95a14.83,14.83,0,0,0-2.81,8.81q0,7.09,4.51,11.24a41.47,41.47,0,0,0,11.33,7.19q6.82,3,14.64,6.18a65.41,65.41,0,0,1,14.64,8.2,40.62,40.62,0,0,1,11.33,13.27q4.51,8.2,4.51,21.37,0,23.09-13,33.52t-37.71,10.43a98.29,98.29,0,0,1-20.56-1.92,36.68,36.68,0,0,1-15-6.68,30.05,30.05,0,0,1-9.33-12.46q-3.21-7.69-3.21-19v-5.06h36.11V183q0,9.32,3.41,13.06a11.38,11.38,0,0,0,8.83,3.75q5.82,0,8.93-4.05a15.81,15.81,0,0,0,3.11-9.92q0-7.09-4.31-11.24a38,38,0,0,0-10.83-7.09q-6.52-2.93-14.14-6a61.81,61.81,0,0,1-14.14-7.9,38.83,38.83,0,0,1-10.83-12.76q-4.32-7.9-4.31-20.66,0-22.07,11.63-33.62T154.06,75q24.47,0,35.41,10.63t10.93,33.92H165.5v-3.44Z"/><path class="a" d="M215.84,115.62q2.61-14.28,8.63-23.29a35.15,35.15,0,0,1,15.85-13.16Q250.15,75,264.39,75t24.07,4.15a35.17,35.17,0,0,1,15.85,13.16q6,9,8.63,23.29t2.61,34.53q0,20.25-2.61,34.53T304.31,208a33.27,33.27,0,0,1-15.85,12.86q-9.83,3.85-24.07,3.85t-24.07-3.85A33.26,33.26,0,0,1,224.47,208q-6-9-8.63-23.29t-2.61-34.53Q213.24,129.9,215.84,115.62Zm36.31,58.74a87.09,87.09,0,0,0,1.71,15.29q1.3,5.67,3.81,7.9a11.25,11.25,0,0,0,13.44,0q2.5-2.23,3.81-7.9a87.65,87.65,0,0,0,1.71-15.29q0.4-9.62.4-24.2t-0.4-24.2a87.72,87.72,0,0,0-1.71-15.29q-1.31-5.67-3.81-7.9a11.25,11.25,0,0,0-13.44,0q-2.51,2.23-3.81,7.9A87.16,87.16,0,0,0,252.15,126q-0.4,9.62-.4,24.2T252.15,174.36Z"/><path class="a" d="M366.3,77.85V191.67h45.94v30.79H329V77.85H366.3Z"/><path class="a" d="M435.11,77.85l15,109h0.4l15-109h39.72L474.43,222.46H426.28L396,77.85h39.12Z"/><path class="a" d="M596.19,77.85v30.79H548.65v24.71h44.53v29.57H548.65v28.76H598v30.79H511.34V77.85h84.86Z"/><rect class="a" x="638.49" y="58.14" width="28.75" height="7.83"/><rect class="a" x="638.49" y="234.4" width="28.75" height="29.45"/><polygon class="a" points="610.78 191.52 610.78 222.46 707.61 222.46 727.69 207.59 707.61 191.52 610.78 191.52"/><polygon class="a" points="610.78 77.76 610.78 108.9 707.61 108.9 727.69 93.83 707.61 77.76 610.78 77.76"/><polygon class="a" points="626.15 159.81 703.55 167.94 706.61 138.84 629.21 130.7 607.56 144.59 626.15 159.81"/><rect class="a" x="638.49" y="173.78" width="28.75" height="6.48"/><rect class="a" x="638.49" y="118.12" width="28.75" height="5.53"/></svg>