<svg xmlns="http://www.w3.org/2000/svg" viewBox="0 0 261 195.82"><path d="M73,169.75a4.57,4.57,0,0,1-6.57,0L0,103.28a4.57,4.57,0,0,1,0-6.57L66.47,30.24a4.57,4.57,0,0,1,6.57,0l7.12,7.12a4.57,4.57,0,0,1,0,6.57L24.1,100l56.06,56.06a4.57,4.57,0,0,1,0,6.57Zm38.23,24.83a4.55,4.55,0,0,1-5.56,3.14l-8.84-2.43a4.61,4.61,0,0,1-3.14-5.7L146.94,5.41a4.53,4.53,0,0,1,5.56-3.13l8.84,2.42a4.61,4.61,0,0,1,3.14,5.71Zm80.47-24.83a4.57,4.57,0,0,1-6.57,0L178,162.63a4.57,4.57,0,0,1,0-6.57L234.1,100,178,43.94a4.57,4.57,0,0,1,0-6.57l7.12-7.12a4.57,4.57,0,0,1,6.57,0l66.47,66.47a4.57,4.57,0,0,1,0,6.57Z" fill="#fff" transform="translate(1.4 -2.09)"/></svg>
